<svg width="325" height="257" viewBox="0 0 325 257" fill="none" xmlns="http://www.w3.org/2000/svg">
<rect opacity="0.5" x="17.5397" y="0.0553589" width="307.46" height="208.413" rx="30.9524" fill="#DAD7E8"/>
<path d="M28.0746 38.9317C30.856 24.197 43.7991 13.5751 58.7933 13.722L294.351 16.0311C311.326 16.1975 325 30.0058 325 46.9819V194.874C325 213.561 308.566 227.987 290.037 225.565L32.4801 191.905C14.8471 189.601 2.77738 172.947 6.07591 155.473L28.0746 38.9317Z" fill="#55418E"/>
<path opacity="0.28" d="M181.307 223.143L303.394 256.235L312.228 251.13L195.79 218.653L181.307 223.143Z" fill="black"/>
<path d="M293.381 58.9104L269.141 59.8879L268.815 54.6019L293.164 53.8597L293.381 58.9104Z" fill="#F5F5F5"/>
<path d="M274.192 61.3722L254.17 63.6351L253.808 54.4388L273.413 53.3707C274.115 54.5641 274.565 55.8888 274.735 57.2629C274.925 58.6566 274.737 60.0758 274.192 61.3722Z" fill="#F5F5F5"/>
<path d="M256.252 58.8741C256.469 61.3904 255.618 63.5265 254.441 63.6171C253.265 63.7076 251.997 61.8068 251.78 59.2543C251.563 56.7017 252.414 54.6018 253.59 54.4932C254.767 54.3846 256.034 56.3577 256.252 58.8741Z" fill="#DBDBDB"/>
<path d="M293.143 59.4163L313.179 57.2817L312.576 48.2827L292.663 51.9031C292.236 53.2203 291.589 54.1445 291.721 55.5227C291.838 56.9244 292.329 58.2691 293.143 59.4163Z" fill="#F5F5F5"/>
<path d="M315.271 52.6679C315.489 55.1842 314.638 57.3204 313.461 57.4109C312.284 57.5014 311.017 55.6007 310.8 53.0481C310.583 50.4956 311.433 48.3956 312.61 48.287C313.787 48.1784 315.054 50.1516 315.271 52.6679Z" fill="#DBDBDB"/>
<path d="M270.86 58.4393L272.526 62.4582C272.61 62.6676 272.648 62.8928 272.636 63.1182C272.625 63.3436 272.564 63.5638 272.459 63.7636C272.354 63.9633 272.207 64.1378 272.028 64.275C271.849 64.4122 271.642 64.5088 271.422 64.5582C267.566 65.3909 258.623 67.346 255.129 67.9615C253.554 67.509 252.142 68.1969 252.25 69.6451C252.359 71.0934 254.061 71.9261 256.215 70.1339C256.975 69.5003 269.322 67.4909 275.042 66.6038C275.38 66.5505 275.702 66.4198 275.981 66.222C276.261 66.0242 276.491 65.7646 276.654 65.4634C276.817 65.1621 276.908 64.8273 276.921 64.4851C276.933 64.1428 276.866 63.8024 276.726 63.4901L274.246 58.0592L270.86 58.4393Z" fill="#F5F5F5"/>
<path d="M286.501 56.9188C286.61 56.9188 291.806 56.1947 292.53 57.1722C293.254 58.1498 293.543 60.7928 294.087 60.9739C294.63 61.1549 304.767 61.698 305.691 62.3135C306.136 62.1026 306.644 62.0675 307.114 62.2152C307.584 62.3629 307.981 62.6824 308.225 63.11C309.329 64.6669 307.03 65.9884 306.324 65.5902C303.602 64.4753 300.702 63.862 297.761 63.7799C296.041 64.0918 294.296 64.2554 292.548 64.2686C292.15 64.1419 284.492 57.5343 284.492 57.5343L286.501 56.9188Z" fill="#F5F5F5"/>
<path d="M291.573 165.611L299.918 164.688L300.552 171.983L292.695 172.997L291.573 165.611Z" fill="#F5F5F5"/>
<path d="M302 203.356C302 203.356 305.15 203.356 305.911 208.534C306.297 210.539 306.503 212.574 306.526 214.616L310.979 214.942C311.011 211.745 310.708 208.554 310.074 205.42C309.097 202.379 306.164 198.396 303.05 197.382C303.05 197.382 300.299 200.532 302 203.356Z" fill="#F5F5F5"/>
<path d="M295.61 190.377L297.51 204.099L303.394 203.791L303.014 189.436L295.61 190.377Z" fill="#E7E7E7"/>
<path d="M292.912 173.395L295.664 190.647L303.394 190.231C303.394 190.231 303.702 187.045 302.326 186.086L300.805 172.273L292.912 173.395Z" fill="#F5F5F5"/>
<path d="M301.385 171.241L301.548 173.233L291.736 174.572L291.41 172.472L301.385 171.241Z" fill="#E7E7E7"/>
<path d="M298.778 163.91L292.224 164.743L280.119 58.3488L286.111 57.9325L298.778 163.91Z" fill="#F5F5F5"/>
<path d="M324.122 229.153C326.312 242.423 320.646 254.335 309.422 256.199C298.198 258.064 287.88 249.881 284.675 236.576C281.055 221.351 288.604 210.344 299.828 208.48C311.052 206.615 321.932 215.884 324.122 229.153Z" fill="#E7E7E7"/>
<path d="M314.509 231.434C315.957 240.141 312.228 247.944 304.878 249.157C297.529 250.369 290.758 245.029 288.676 236.303C286.268 226.311 291.247 219.106 298.597 217.893C305.946 216.68 313.079 222.744 314.509 231.434Z" fill="#231F20"/>
<path d="M311.975 231.796C313.169 239.038 310.164 245.428 304.027 246.424C297.89 247.419 292.369 243.02 290.631 235.815C288.658 227.56 292.767 221.623 298.832 220.609C304.896 219.595 310.798 224.61 311.975 231.796Z" fill="#414042"/>
<path d="M309.205 232.249C310.092 237.59 307.811 242.369 303.304 243.111C298.796 243.853 294.65 240.577 293.365 235.236C291.899 229.117 294.94 224.7 299.448 223.94C303.955 223.18 308.336 226.927 309.205 232.249Z" fill="#231F20"/>
<path d="M276.801 217.531C277.434 217.206 285.291 214.454 286.649 213.114C285.946 212.524 285.151 212.053 284.295 211.72C281.001 210.272 278.611 209.095 230.294 197.057C224.411 195.591 219.125 195.102 211.105 184.385C203.085 173.668 199.519 169.902 186.087 171.803C180.966 172.495 175.903 173.553 170.934 174.971C175.514 174.826 184.294 175.478 188.368 181.887C194.016 190.775 196.695 201.8 223.089 207.231C249.483 212.662 275.823 218.075 276.801 217.531Z" fill="#E49401"/>
<path d="M289.853 163.892L290.595 169.196L301.385 167.856L300.86 162.57L289.853 163.892Z" fill="#E7E7E7"/>
<path d="M294.36 175.894C294.36 175.894 280.132 184.547 270.827 211.846C273.775 213.259 277.029 213.913 280.294 213.747C280.294 213.747 285.237 199.953 296.949 192.204L294.36 175.894Z" fill="#E7E7E7"/>
<path d="M208.172 206.687H206.887C204.687 206.687 202.904 208.47 202.904 210.67V216.626C202.904 218.825 204.687 220.609 206.887 220.609H208.172C210.372 220.609 212.155 218.825 212.155 216.626V210.67C212.155 208.47 210.372 206.687 208.172 206.687Z" fill="#A39E98"/>
<path d="M200.424 209.783C200.424 212.597 199.59 215.348 198.026 217.688C196.463 220.028 194.241 221.852 191.641 222.929C189.041 224.006 186.18 224.288 183.419 223.739C180.659 223.19 178.124 221.835 176.134 219.845C174.144 217.855 172.789 215.319 172.24 212.559C171.691 209.799 171.973 206.938 173.05 204.338C174.126 201.738 175.95 199.516 178.29 197.952C180.63 196.389 183.381 195.554 186.195 195.554C189.969 195.554 193.588 197.053 196.257 199.722C198.925 202.39 200.424 206.009 200.424 209.783Z" fill="#E7E7E7"/>
<path d="M198.095 210.016C198.095 212.362 197.399 214.656 196.096 216.607C194.792 218.559 192.939 220.079 190.771 220.977C188.603 221.875 186.217 222.11 183.915 221.653C181.614 221.195 179.5 220.065 177.84 218.405C176.181 216.746 175.051 214.632 174.593 212.33C174.135 210.029 174.37 207.643 175.268 205.475C176.166 203.307 177.687 201.454 179.638 200.15C181.59 198.846 183.884 198.15 186.23 198.15C189.377 198.15 192.395 199.401 194.62 201.626C196.845 203.851 198.095 206.869 198.095 210.016Z" fill="#414042"/>
<path d="M210.019 202.704L204.968 200.405C204.517 195.896 202.379 191.724 198.981 188.726C195.583 185.728 191.178 184.125 186.648 184.239C181.751 184.239 177.054 186.185 173.591 189.647C170.128 193.11 168.183 197.807 168.183 202.704C168.111 205.06 168.519 207.405 169.382 209.597C170.245 211.79 171.545 213.784 173.203 215.459C174.86 217.134 176.841 218.454 179.025 219.339C181.209 220.224 183.55 220.656 185.906 220.608C189.421 220.613 192.862 219.594 195.808 217.675C199.61 217.404 207.484 217.205 209.114 215.177C211.377 212.389 210.019 202.704 210.019 202.704Z" fill="#E7E7E7"/>
<path opacity="0.28" d="M175.116 210.887C175.116 211.142 175.015 211.386 174.835 211.566C174.655 211.746 174.411 211.847 174.157 211.847C173.902 211.847 173.658 211.746 173.478 211.566C173.298 211.386 173.197 211.142 173.197 210.887C173.197 210.633 173.298 210.389 173.478 210.209C173.658 210.029 173.902 209.928 174.157 209.928C174.411 209.928 174.655 210.029 174.835 210.209C175.015 210.389 175.116 210.633 175.116 210.887Z" fill="black"/>
<path opacity="0.28" d="M176.836 214.526C177.366 214.526 177.795 214.096 177.795 213.566C177.795 213.037 177.366 212.607 176.836 212.607C176.306 212.607 175.876 213.037 175.876 213.566C175.876 214.096 176.306 214.526 176.836 214.526Z" fill="black"/>
<path opacity="0.28" d="M181.325 215.721C181.325 215.91 181.269 216.096 181.164 216.254C181.058 216.411 180.908 216.534 180.733 216.607C180.558 216.68 180.365 216.699 180.179 216.662C179.993 216.625 179.822 216.533 179.688 216.399C179.553 216.265 179.462 216.094 179.425 215.908C179.388 215.722 179.407 215.529 179.48 215.353C179.552 215.178 179.675 215.028 179.833 214.923C179.991 214.817 180.176 214.761 180.366 214.761C180.62 214.761 180.864 214.862 181.044 215.042C181.224 215.222 181.325 215.466 181.325 215.721Z" fill="black"/>
<path d="M269.704 216.807V221.93L259.132 227.614L211.376 218.255V207.592L269.704 216.807Z" fill="#E7E7E7"/>
<path opacity="0.28" d="M269.071 222.274L265.74 224.12V215.178H269.071V222.274Z" fill="black"/>
<path opacity="0.28" d="M255.819 226.963L259.132 227.614L261.413 226.383V215.503L255.819 214.616V226.963Z" fill="black"/>
<path opacity="0.28" d="M210.019 202.705L204.968 200.405C204.737 197.451 203.732 194.61 202.054 192.169C197.166 195.192 191.572 200.55 194.975 204.642C197.854 208.262 207.321 205.366 205.403 215.34C204.95 216.227 203.484 216.771 201.782 217.259C205.022 216.952 208.227 216.39 209.186 215.178C211.377 212.39 210.019 202.705 210.019 202.705Z" fill="black"/>
<path d="M277.959 220.482L287.282 216.554V214.309C287.282 214.309 287.608 213.241 284.295 211.793C280.982 210.344 278.611 209.168 230.294 197.129C224.41 195.663 219.124 195.174 211.105 184.457C203.085 173.74 199.519 169.975 186.086 171.875C180.561 172.612 175.11 173.823 169.794 175.496C174.482 181.724 174.102 189.58 172.545 205.601C174.355 208.896 178.791 209.656 182.14 208.697C186.702 209.584 192.205 209.53 195.156 205.62C198.632 206.923 272.836 222.111 277.959 220.482Z" fill="#FFA500"/>
<path d="M287.282 216.174V214.363C287.282 214.363 276.746 219.287 276.619 219.233C241.843 213.693 218.563 208.987 182.864 200.08C182.248 205.619 172.943 200.84 172.907 201.329C172.78 202.705 172.636 204.153 172.491 205.692C174.301 208.987 178.736 209.747 182.085 208.788C186.647 209.675 192.151 209.62 195.101 205.71C198.632 206.977 272.619 221.858 276.674 221.822L287.282 216.608V216.228V216.174Z" fill="#E49401"/>
<path d="M295.863 185.489L294.36 175.803C294.36 175.803 280.132 184.457 270.827 211.756C272.178 212.378 273.584 212.875 275.026 213.24C279.839 202.565 286.954 193.088 295.863 185.489Z" fill="#F5F5F5"/>
<path d="M274.954 213.241C276.669 213.705 278.455 213.847 280.222 213.657C280.222 213.657 285.164 199.862 296.877 192.114L295.863 185.489C286.928 193.08 279.787 202.558 274.954 213.241Z" fill="#E7E7E7"/>
<path d="M300.805 203.049C300.805 203.049 297.004 209.113 297.655 213.024C299.574 224.175 301.167 230.927 301.167 231.127C299.713 231.681 298.225 232.147 296.714 232.52C296.714 232.52 293.292 218.346 292.659 213.168C292.188 209.349 292.188 199.682 298.09 197.817C298.661 197.898 299.204 198.114 299.674 198.448C300.145 198.781 300.529 199.222 300.794 199.734C301.06 200.245 301.2 200.813 301.202 201.39C301.203 201.967 301.068 202.535 300.805 203.049Z" fill="#F5F5F5"/>
<path d="M300.932 230.203C301.635 230.866 302.056 231.773 302.109 232.738C302.12 233.624 301.789 234.48 301.185 235.127C300.642 235.127 299.755 235.236 298.977 235.272C297.166 235.417 296.171 234.675 296.008 233.209C295.845 231.742 296.424 230.439 297.818 230.33C298.853 230.232 299.892 230.189 300.932 230.203Z" fill="#414042"/>
<path d="M300.099 232.539C300.093 232.967 299.963 233.384 299.726 233.74C299.489 234.097 299.154 234.377 298.761 234.548C298.368 234.719 297.935 234.773 297.512 234.703C297.09 234.634 296.696 234.444 296.379 234.157C296.061 233.87 295.833 233.497 295.722 233.083C295.611 232.67 295.622 232.233 295.753 231.825C295.884 231.418 296.129 231.056 296.46 230.785C296.791 230.513 297.194 230.343 297.619 230.294C298.244 230.269 298.854 230.49 299.318 230.91C299.781 231.33 300.062 231.914 300.099 232.539Z" fill="#A7A9AC"/>
<circle cx="299" cy="18" r="10" fill="white"/>
<path fill-rule="evenodd" clip-rule="evenodd" d="M296.28 14.2197C295.987 13.9268 295.513 13.9268 295.22 14.2197C294.927 14.5126 294.927 14.9874 295.22 15.2803L298.019 18.0793L295.22 20.8782C294.927 21.1711 294.927 21.6459 295.22 21.9388C295.513 22.2317 295.987 22.2317 296.28 21.9388L299.079 19.1399L301.679 21.7399C301.972 22.0328 302.447 22.0328 302.74 21.7399C303.033 21.447 303.033 20.9721 302.74 20.6792L300.14 18.0793L302.74 15.4793C303.033 15.1864 303.033 14.7115 302.74 14.4186C302.447 14.1257 301.972 14.1257 301.679 14.4186L299.079 17.0186L296.28 14.2197Z" fill="#FFA500"/>
</svg>
