<svg width="20" height="20" viewBox="0 0 20 20" fill="none" xmlns="http://www.w3.org/2000/svg">
<g id=" arrowhead-right">
<path id="Icon" fill-rule="evenodd" clip-rule="evenodd" d="M11.6261 4.47751L15.6494 9.47751C15.8986 9.78668 15.8944 10.2283 15.6402 10.5333L11.4736 15.5333C11.3086 15.7308 11.0719 15.8333 10.8327 15.8333C10.6452 15.8333 10.4561 15.77 10.3002 15.64C9.94607 15.3458 9.89857 14.82 10.1936 14.4667L13.9236 9.99085L10.3269 5.52251C10.0386 5.16418 10.0952 4.63918 10.4544 4.35085C10.8127 4.06168 11.3369 4.11918 11.6261 4.47751ZM4.621 4.35092C4.97934 4.06258 5.5035 4.11925 5.79267 4.47758L9.816 9.47758C10.0643 9.78675 10.061 10.2284 9.80684 10.5334L5.64017 15.5334C5.47517 15.7309 5.2385 15.8334 4.99934 15.8334C4.81184 15.8334 4.62267 15.7701 4.46684 15.6401C4.11267 15.3459 4.06517 14.8201 4.36017 14.4668L8.08934 9.99092L4.4935 5.52258C4.20517 5.16425 4.26267 4.63925 4.621 4.35092Z" fill="white"/>
</g>
</svg>
